<svg width="32" height="32" viewBox="0 0 32 32" fill="none" xmlns="http://www.w3.org/2000/svg">
<path d="M16 26.666H28" stroke="#1B5E20" stroke-width="2.66667" stroke-linecap="round" stroke-linejoin="round"/>
<path d="M21.8333 4.82898C22.3641 4.29819 23.084 4 23.8347 4C24.5853 4 25.3052 4.29819 25.836 4.82898C26.3668 5.35977 26.665 6.07967 26.665 6.83031C26.665 7.58096 26.3668 8.30086 25.836 8.83165L9.82267 24.8463C9.50546 25.1635 9.11336 25.3956 8.68267 25.521L4.85333 26.6383C4.7386 26.6718 4.61699 26.6738 4.50121 26.6441C4.38544 26.6145 4.27977 26.5542 4.19526 26.4697C4.11075 26.3852 4.05052 26.2795 4.02086 26.1638C3.9912 26.048 3.9932 25.9264 4.02667 25.8116L5.144 21.9823C5.26963 21.5521 5.50166 21.1605 5.81867 20.8436L21.8333 4.82898Z" stroke="#1B5E20" stroke-width="2.66667" stroke-linecap="round" stroke-linejoin="round"/>
</svg>
