<svg width="48" height="48" viewBox="0 0 48 48" fill="none" xmlns="http://www.w3.org/2000/svg">
<path d="M20.5352 42C20.8862 42.608 21.3912 43.1129 21.9992 43.464C22.6073 43.815 23.297 43.9998 23.9992 43.9998C24.7013 43.9998 25.391 43.815 25.9991 43.464C26.6071 43.1129 27.1121 42.608 27.4632 42" stroke="#364153" stroke-width="4" stroke-linecap="round" stroke-linejoin="round"/>
<path d="M6.52254 30.652C6.26127 30.9384 6.08885 31.2945 6.02625 31.677C5.96365 32.0596 6.01358 32.4521 6.16995 32.8068C6.32633 33.1615 6.58241 33.4631 6.90705 33.6749C7.23169 33.8868 7.6109 33.9997 7.99854 34H39.9985C40.3861 34.0001 40.7654 33.8876 41.0903 33.6762C41.4151 33.4648 41.6715 33.1635 41.8283 32.809C41.9851 32.4546 42.0355 32.0622 41.9734 31.6796C41.9113 31.297 41.7394 30.9407 41.4785 30.654C38.8185 27.912 35.9985 24.998 35.9985 16C35.9985 12.8174 34.7343 9.76516 32.4838 7.51472C30.2334 5.26428 27.1811 4 23.9985 4C20.8159 4 17.7637 5.26428 15.5133 7.51472C13.2628 9.76516 11.9985 12.8174 11.9985 16C11.9985 24.998 9.17654 27.912 6.52254 30.652Z" stroke="#364153" stroke-width="4" stroke-linecap="round" stroke-linejoin="round"/>
</svg>
