<svg width="32" height="32" viewBox="0 0 32 32" fill="none" xmlns="http://www.w3.org/2000/svg">
<path d="M23.9993 14.6673V8.00065C23.9993 7.29341 23.7184 6.61513 23.2183 6.11503C22.7182 5.61494 22.0399 5.33398 21.3327 5.33398C20.6254 5.33398 19.9472 5.61494 19.4471 6.11503C18.947 6.61513 18.666 7.29341 18.666 8.00065" stroke="#1B5E20" stroke-width="2.66667" stroke-linecap="round" stroke-linejoin="round"/>
<path d="M18.6673 13.3327V5.33268C18.6673 4.62544 18.3864 3.94716 17.8863 3.44706C17.3862 2.94697 16.7079 2.66602 16.0007 2.66602C15.2934 2.66602 14.6151 2.94697 14.115 3.44706C13.6149 3.94716 13.334 4.62544 13.334 5.33268V7.99935" stroke="#1B5E20" stroke-width="2.66667" stroke-linecap="round" stroke-linejoin="round"/>
<path d="M13.3333 14.0007V8.00065C13.3333 7.29341 13.0524 6.61513 12.5523 6.11503C12.0522 5.61494 11.3739 5.33398 10.6667 5.33398C9.95942 5.33398 9.28115 5.61494 8.78105 6.11503C8.28095 6.61513 8 7.29341 8 8.00065V18.6673" stroke="#1B5E20" stroke-width="2.66667" stroke-linecap="round" stroke-linejoin="round"/>
<path d="M23.9995 10.6667C23.9995 9.95942 24.2804 9.28115 24.7805 8.78105C25.2806 8.28095 25.9589 8 26.6662 8C27.3734 8 28.0517 8.28095 28.5518 8.78105C29.0519 9.28115 29.3328 9.95942 29.3328 10.6667V18.6667C29.3328 21.4956 28.209 24.2088 26.2086 26.2091C24.2082 28.2095 21.4951 29.3333 18.6662 29.3333H15.9995C12.2662 29.3333 9.99949 28.1867 8.01282 26.2133L3.21282 21.4133C2.75407 20.9053 2.50827 20.2402 2.52632 19.5559C2.54437 18.8716 2.82488 18.2205 3.30978 17.7373C3.79468 17.2541 4.44682 16.9759 5.13118 16.9603C5.81554 16.9446 6.4797 17.1928 6.98615 17.6533L9.33282 20" stroke="#1B5E20" stroke-width="2.66667" stroke-linecap="round" stroke-linejoin="round"/>
</svg>
