<svg width="256" height="256" viewBox="0 0 256 256" fill="none" xmlns="http://www.w3.org/2000/svg">
<g opacity="0.5">
<path d="M32 74.6667V53.3333C32 47.6754 34.2476 42.2492 38.2484 38.2484C42.2492 34.2476 47.6754 32 53.3333 32H74.6667" stroke="#1B5E20" stroke-width="21.3333" stroke-linecap="round" stroke-linejoin="round"/>
<path d="M181.334 32H202.667C208.325 32 213.751 34.2476 217.752 38.2484C221.753 42.2492 224.001 47.6754 224.001 53.3333V74.6667" stroke="#1B5E20" stroke-width="21.3333" stroke-linecap="round" stroke-linejoin="round"/>
<path d="M224.001 181.334V202.667C224.001 208.325 221.753 213.751 217.752 217.752C213.751 221.753 208.325 224.001 202.667 224.001H181.334" stroke="#1B5E20" stroke-width="21.3333" stroke-linecap="round" stroke-linejoin="round"/>
<path d="M74.6667 224.001H53.3333C47.6754 224.001 42.2492 221.753 38.2484 217.752C34.2476 213.751 32 208.325 32 202.667V181.334" stroke="#1B5E20" stroke-width="21.3333" stroke-linecap="round" stroke-linejoin="round"/>
</g>
</svg>
