<svg width="32" height="32" viewBox="0 0 32 32" fill="none" xmlns="http://www.w3.org/2000/svg">
<path d="M21.334 21.3327L25.334 10.666L29.334 21.3327C28.174 22.1993 26.774 22.666 25.334 22.666C23.894 22.666 22.494 22.1993 21.334 21.3327Z" stroke="white" stroke-width="2.66667" stroke-linecap="round" stroke-linejoin="round"/>
<path d="M2.66602 21.3327L6.66602 10.666L10.666 21.3327C9.50602 22.1993 8.10602 22.666 6.66602 22.666C5.22602 22.666 3.82602 22.1993 2.66602 21.3327Z" stroke="white" stroke-width="2.66667" stroke-linecap="round" stroke-linejoin="round"/>
<path d="M9.33398 28H22.6673" stroke="white" stroke-width="2.66667" stroke-linecap="round" stroke-linejoin="round"/>
<path d="M16 4V28" stroke="white" stroke-width="2.66667" stroke-linecap="round" stroke-linejoin="round"/>
<path d="M4 9.33268H6.66667C9.33333 9.33268 13.3333 7.99935 16 6.66602C18.6667 7.99935 22.6667 9.33268 25.3333 9.33268H28" stroke="white" stroke-width="2.66667" stroke-linecap="round" stroke-linejoin="round"/>
</svg>
